<?xml version="1.0" standalone="no"?>
<!DOCTYPE svg PUBLIC "-//W3C//DTD SVG 20010904//EN"
 "http://www.w3.org/TR/2001/REC-SVG-20010904/DTD/svg10.dtd">
<svg version="1.0" xmlns="http://www.w3.org/2000/svg"
 width="1260.000000pt" height="836.000000pt" viewBox="0 0 1260.000000 836.000000"
 preserveAspectRatio="xMidYMid meet">
<metadata>
Created by potrace 1.16, written by Peter Selinger 2001-2019
</metadata>
<g transform="translate(0.000000,836.000000) scale(0.100000,-0.100000)"
fill="#000000" stroke="none">
<path d="M7360 7563 c-57 -26 -92 -40 -135 -53 -22 -7 -48 -16 -57 -21 -10 -5
-34 -13 -55 -18 -53 -13 -184 -52 -208 -61 -11 -5 -54 -20 -95 -34 -41 -13
-122 -42 -180 -64 -58 -22 -143 -54 -190 -71 -47 -18 -98 -38 -115 -45 -16 -7
-57 -23 -90 -36 -122 -46 -210 -81 -227 -90 -10 -6 -22 -10 -28 -10 -20 0
-546 -265 -745 -375 -33 -18 -96 -52 -140 -75 -44 -24 -149 -85 -233 -137 -84
-51 -155 -93 -157 -93 -2 0 -91 -58 -197 -129 -220 -148 -422 -305 -591 -459
-49 -45 -63 -53 -85 -48 -58 13 -398 44 -547 50 -139 6 -344 24 -356 31 -4 3
-38 10 -76 15 -37 5 -115 16 -173 25 -58 9 -134 20 -170 25 -267 37 -481 125
-545 224 -21 32 -31 181 -16 228 19 58 65 113 143 170 177 130 398 231 598
273 100 20 406 35 672 33 205 -2 219 -1 245 18 66 49 89 124 58 184 -20 38
-29 48 -67 73 -25 15 -61 17 -364 17 -243 0 -371 -4 -462 -16 -114 -14 -284
-51 -337 -73 -11 -5 -40 -16 -65 -26 -86 -32 -266 -123 -354 -179 -170 -106
-254 -188 -317 -308 l-44 -83 0 -175 0 -175 32 -68 c48 -102 149 -198 273
-259 133 -66 186 -83 385 -127 28 -6 95 -17 150 -25 126 -19 148 -22 265 -42
162 -27 210 -32 390 -44 288 -19 433 -34 437 -46 2 -7 -23 -43 -55 -80 -108
-126 -170 -232 -197 -338 -38 -144 2 -279 103 -350 41 -29 47 -30 150 -30 122
0 171 13 325 91 110 55 178 105 273 204 143 148 200 224 238 321 27 69 36 180
16 193 -5 3 -10 15 -10 25 0 28 -82 104 -144 133 -31 15 -56 30 -56 35 0 8 99
90 240 199 69 53 335 233 345 233 4 0 21 11 38 24 158 118 1076 605 1302 691
255 96 312 118 340 130 17 7 64 25 105 40 41 15 89 34 106 41 69 30 296 105
494 164 185 55 341 122 374 159 27 29 33 118 12 158 -34 68 -142 94 -226 56z
m-3328 -2152 c13 -5 42 -15 66 -22 23 -7 42 -14 42 -16 0 -24 -97 -140 -199
-240 -47 -46 -90 -75 -160 -109 -53 -26 -104 -50 -113 -55 -25 -13 -48 -11
-48 4 1 19 38 96 62 128 74 95 150 187 232 276 40 45 69 53 118 34z"/>
<path d="M10460 6741 c-78 -24 -145 -69 -370 -250 -301 -242 -416 -345 -670
-607 -281 -290 -631 -728 -837 -1048 -183 -285 -451 -721 -528 -861 -16 -27
-33 -58 -39 -68 -10 -16 -41 -17 -446 -16 -420 1 -513 -3 -655 -32 -56 -12
-221 -64 -247 -79 -10 -6 -70 -10 -134 -10 -101 0 -133 -5 -252 -36 -76 -20
-164 -42 -197 -50 -66 -16 -223 -68 -270 -89 -91 -41 -125 -53 -130 -45 -3 5
-1 11 5 15 5 3 10 27 10 53 0 56 -26 104 -72 132 -32 20 -53 20 -1058 20
l-1025 0 -36 -24 c-91 -62 -89 -180 5 -250 27 -20 39 -21 454 -21 l427 0 5
-46 c7 -60 28 -89 98 -140 108 -79 225 -207 265 -288 21 -41 37 -82 37 -90 0
-9 -24 -43 -53 -76 -115 -131 -187 -275 -187 -374 0 -62 49 -159 99 -194 56
-38 167 -60 295 -55 123 4 183 29 231 97 27 39 30 49 28 119 -1 42 -7 91 -13
107 -7 17 -20 88 -30 160 l-17 130 41 38 c88 80 412 296 588 391 80 43 224
102 297 122 300 83 404 104 515 103 95 0 110 3 252 50 133 44 168 52 287 62
133 11 701 8 713 -3 3 -3 1 -14 -5 -25 -6 -10 -20 -40 -32 -68 -12 -27 -35
-79 -51 -115 -52 -113 -56 -123 -104 -245 -111 -284 -185 -508 -240 -730 -19
-77 -39 -156 -43 -175 -43 -170 -75 -645 -68 -1020 4 -257 5 -267 29 -320 60
-130 182 -178 338 -134 30 8 72 20 93 25 21 5 45 13 55 18 9 5 28 13 42 18 59
23 216 107 292 156 205 133 366 290 492 480 105 161 160 303 206 535 13 69 13
359 0 487 -16 148 -54 378 -76 460 -46 169 -73 244 -129 360 -88 180 -166 294
-269 394 -47 46 -86 90 -86 97 0 8 18 43 40 79 22 36 40 67 40 70 0 12 430
702 482 772 21 29 38 55 38 57 0 13 213 302 329 446 293 366 612 691 942 960
181 148 293 237 309 244 8 3 29 15 45 25 17 11 43 20 59 20 16 1 44 10 63 22
89 55 84 198 -8 253 -29 17 -123 21 -169 7z m-2258 -3292 c118 -127 229 -350
278 -554 11 -50 25 -108 31 -130 9 -38 20 -111 39 -270 17 -146 23 -378 10
-458 -51 -338 -267 -634 -614 -847 -106 -65 -282 -140 -327 -140 -25 0 -31
146 -19 485 12 345 19 417 69 680 48 251 216 738 381 1100 15 33 40 88 55 123
15 34 33 62 39 62 6 0 32 -23 58 -51z m-2689 22 c15 0 27 -4 27 -9 0 -4 -26
-23 -57 -42 -115 -68 -240 -151 -341 -226 -57 -42 -104 -75 -106 -73 -2 2 -11
19 -21 38 -33 64 -116 170 -183 233 -38 35 -71 68 -75 74 -4 8 97 10 361 9
202 -1 379 -3 395 -4z"/>
</g>
</svg>
